HIERARCHY
ROOT Hips
{
  OFFSET 1.44925e-005 102.336 -0.101585
  CHANNELS 6 Xposition Yposition Zposition Zrotation Xrotation Yrotation
  JOINT LeftUpLeg
  {
    OFFSET 8.9458 -8.66707 0.101652
    CHANNELS 3 Zrotation Xrotation Yrotation
    JOINT LeftLeg
    {
      OFFSET 0 -44.4227 1.3727
      CHANNELS 3 Zrotation Xrotation Yrotation
      JOINT LeftFoot
      {
        OFFSET -0.253549 -42.0924 -1.46059
        CHANNELS 3 Zrotation Xrotation Yrotation
        JOINT LeftToes
        {
          OFFSET -0.04 -4.41509 8.4991
          CHANNELS 3 Zrotation Xrotation Yrotation
          End Site
          {
            OFFSET 0.08 -0.047448 9.77979
          }
        }
      }
    }
  }
  JOINT Spine
  {
    OFFSET 0 11.8905 0
    CHANNELS 3 Zrotation Xrotation Yrotation
    JOINT Spine1
    {
      OFFSET 0 25.6574 0.127663
      CHANNELS 3 Zrotation Xrotation Yrotation
      JOINT RightShoulder
      {
        OFFSET -8.99 -0.362252 -0.22
        CHANNELS 3 Zrotation Xrotation Yrotation
        JOINT RightArm
        {
          OFFSET -10.2827 -0.00338 0.322123
          CHANNELS 3 Zrotation Xrotation Yrotation
          JOINT RightForeArm
          {
            OFFSET -26.364 0.099144 -1.42434
            CHANNELS 3 Zrotation Xrotation Yrotation
            JOINT RightHand
            {
              OFFSET -22.0324 0.085362 1.02216
              CHANNELS 3 Zrotation Xrotation Yrotation
              End Site
              {
                OFFSET -13.3284 -0.6 1.50291
              }
            }
          }
        }
      }
      JOINT LeftShoulder1
      {
        OFFSET 8.99 -0.362252 -0.22
        CHANNELS 3 Zrotation Xrotation Yrotation
        JOINT LeftArm
        {
          OFFSET 10.2827 -0.00337999 0.322123
          CHANNELS 3 Zrotation Xrotation Yrotation
          JOINT LeftForeArm
          {
            OFFSET 26.2597 0.099144 -1.42434
            CHANNELS 3 Zrotation Xrotation Yrotation
            JOINT LeftHand
            {
              OFFSET 22.0902 0.085362 1.02216
              CHANNELS 3 Zrotation Xrotation Yrotation
              End Site
              {
                OFFSET 13.419 -0.6 1.50291
              }
            }
          }
        }
      }
      JOINT Head
      {
        OFFSET 0 8.73416 0.011341
        CHANNELS 3 Zrotation Xrotation Yrotation
        End Site
        {
          OFFSET -0.29 12.7742 2.51395
        }
      }
    }
  }
  JOINT RightUpLeg
  {
    OFFSET -8.9458 -8.66707 0.101652
    CHANNELS 3 Zrotation Xrotation Yrotation
    JOINT RightLeg
    {
      OFFSET 0 -44.4227 1.3727
      CHANNELS 3 Zrotation Xrotation Yrotation
      JOINT RightFoot
      {
        OFFSET 0.253549 -42.0924 -1.46059
        CHANNELS 3 Zrotation Xrotation Yrotation
        JOINT RightToes
        {
          OFFSET 0.04 -4.41509 8.4991
          CHANNELS 3 Zrotation Xrotation Yrotation
          End Site
          {
            OFFSET -0.08 -0.137448 9.77979
          }
        }
      }
    }
  }
}
MOTION
Frames:	8
Frame Time:	0.0333333
187.757 103.058 1.1782 -4.03055 -0.762443 -92.1011 -1.72766 2.55013 1.87723 -0.155848 8.11255 20.7775 -2.22103 -11.1048 -0.0132107 -1.34638e-009 8.75222e-006 -1.47485e-008 2.78307 8.05491 0.579803 -3.91844 -1.96245 1.44215 37.0207 1.72586 0.0147048 40.3002 -18.7201 2.26579 7.77754 36.2763 9.00594 -8.24209 9.63495 -1.39097 -44.2629 3.55087 -3.47062 -26.0445 -12.0589 4.84737 -3.97034 32.3625 -15.9169 5.82328 9.61819 -0.917488 0.860825 -5.79461 -5.44555 0.702282 1.46865 -2.92804 -0.355079 10.8069 -6.58566 1.25954 -13.2465 -0.140377 0.0462048 0.000530889 0.662642 
187.739 103.058 1.17933 -4.00074 -0.744752 -92.1379 -1.70668 2.513 1.8964 -0.162685 8.15318 20.7899 -2.2204 -11.1258 -0.0132116 -1.34638e-009 8.75222e-006 -1.47485e-008 2.9005 7.97647 0.533732 -4.08876 -1.85591 1.42847 37.0778 1.72586 0.0147048 40.3641 -18.5701 2.48578 7.72141 36.2121 9.11117 -7.81644 9.6465 -1.33614 -44.1939 3.54147 -3.46256 -26.1132 -11.932 4.68777 -3.82056 32.0704 -16.1594 5.82328 9.61819 -0.917488 0.716259 -6.13541 -6.20209 0.728413 1.46866 -2.89293 -0.361076 10.7574 -6.58363 1.26263 -13.2211 -0.140362 0.0462048 0.000530889 0.662642 
187.707 103.058 1.18671 -3.92863 -0.727437 -92.2187 -1.6857 2.44263 1.92167 -0.185227 8.19111 20.8447 -2.20538 -11.1568 -0.013213 -1.34638e-009 8.75222e-006 -1.47485e-008 2.97825 7.89748 0.51734 -4.20649 -1.7621 1.43399 37.1213 1.72586 0.0147048 40.4695 -18.1892 2.77511 7.52476 35.9388 9.48658 -7.15536 9.66667 -1.28261 -44.1767 3.53171 -3.44596 -26.163 -11.3242 4.43676 -3.58402 31.255 -16.6609 5.82328 9.61819 -0.917488 0.376176 -6.63324 -7.21144 0.74462 1.40944 -2.85634 -0.370699 10.745 -6.52627 1.27889 -13.2149 -0.140359 0.0462048 0.000530889 0.662642 
187.658 103.058 1.20598 -3.86678 -0.72914 -92.2765 -1.70242 2.41496 1.91569 -0.19734 8.177 20.918 -2.14707 -11.1844 -0.0132143 -1.34638e-009 8.75222e-006 -1.47485e-008 2.85942 7.92677 0.53812 -4.03978 -1.83984 1.4204 37.0212 1.72586 0.0147048 40.6152 -17.313 2.86703 7.16375 35.174 10.2393 -6.74993 9.68509 -1.36279 -44.2833 3.53315 -3.43284 -26.1316 -10.3692 4.32719 -3.34882 30.1669 -17.2633 5.82328 9.61819 -0.917488 0.0760257 -6.78822 -7.37212 0.721907 1.33235 -2.8666 -0.373111 10.819 -6.44722 1.30811 -13.2581 -0.140384 0.0462048 0.000530889 0.662642 
187.585 103.058 1.23554 -3.86791 -0.722045 -92.263 -1.72857 2.46679 1.89656 -0.180867 8.16022 20.9289 -2.07888 -11.2177 -0.0129629 -1.34638e-009 8.75222e-006 -1.47485e-008 2.74248 8.05851 0.511468 -3.86538 -2.05062 1.35556 36.9038 1.72586 0.0154495 40.7659 -16.0454 2.80813 6.74938 34.1667 11.1503 -6.58829 9.69038 -1.35496 -44.3407 3.53464 -3.4272 -26.13 -9.58429 4.36117 -3.07187 29.3794 -17.8356 5.82328 9.61819 -0.917488 0.0966124 -6.3931 -6.52988 0.719097 1.36226 -2.86803 -0.395112 10.861 -6.46261 1.34207 -13.306 -0.140411 0.0462048 0.000530889 0.662642 
187.505 103.056 1.26491 -3.90699 -0.684634 -92.2199 -1.719 2.54172 1.90701 -0.157968 8.19096 20.8663 -2.03695 -11.2533 -0.0119364 -1.34638e-009 8.75222e-006 -1.47485e-008 2.82871 8.18632 0.448288 -3.97492 -2.21263 1.30868 36.9404 1.72586 0.0144357 40.8835 -14.8407 2.78323 6.40887 33.2333 11.9313 -6.52467 9.67976 -1.08671 -44.2577 3.52543 -3.42151 -26.1972 -9.23855 4.27795 -2.81875 29.1507 -18.2072 5.82328 9.61819 -0.917488 0.357198 -5.69776 -5.58878 0.781842 1.49707 -2.79494 -0.460238 10.7888 -6.58326 1.38924 -13.3141 -0.139667 0.0462048 0.000530889 0.662642 
187.443 103.053 1.29204 -3.9163 -0.646978 -92.2158 -1.6941 2.56855 1.9388 -0.161081 8.23379 20.8235 -1.99614 -11.2734 -0.0109015 -1.34638e-009 8.75222e-006 -1.47485e-008 2.95514 8.26985 0.447868 -4.15331 -2.28959 1.34038 37.0278 1.72586 0.00136089 41.0147 -13.8979 2.82768 6.21617 32.2099 12.5169 -6.65089 9.66347 -0.848335 -44.2061 3.51638 -3.41146 -26.2205 -9.06256 3.98261 -2.75404 29.0891 -18.3089 5.82328 9.61819 -0.917488 0.56196 -5.49578 -5.24728 0.848089 1.58522 -2.70411 -0.532671 10.7114 -6.66825 1.44682 -13.3073 -0.137124 0.0462048 0.000530889 0.662642 
187.401 103.049 1.32747 -3.89243 -0.639096 -92.245 -1.6974 2.55304 1.95798 -0.192321 8.26052 20.8459 -1.9232 -11.2916 -0.00988167 -1.34638e-009 8.75222e-006 -1.47485e-008 2.88069 8.40319 0.509372 -4.07214 -2.44649 1.38535 36.9962 1.72591 -0.00872765 41.1872 -13.0248 2.85722 6.17083 30.9594 12.9718 -6.9351 9.65675 -0.934344 -44.2725 3.51687 -3.40242 -26.1883 -8.74795 3.74923 -2.80266 28.8103 -18.3517 5.82328 9.61819 -0.917488 0.532582 -5.78761 -5.30981 0.844576 1.56653 -2.69359 -0.563101 10.7443 -6.63298 1.48923 -13.329 -0.135738 0.0462048 0.000530889 0.662642 
